<svg xmlns="http://www.w3.org/2000/svg" viewBox="0 0 48.23 13.1"><defs><style>.cls-1,.cls-3{fill:#33669a;}.cls-2{font-size:10px;fill:#fff;font-family:MyriadPro-Bold, Myriad Pro;font-weight:700;}.cls-3{stroke:#33669a;stroke-miterlimit:10;stroke-width:0.5px;}</style></defs><g id="Layer_2" data-name="Layer 2"><g id="Layer_1-2" data-name="Layer 1"><rect class="cls-1" x="35.08" width="13.15" height="12.1" rx="2.17"/><text class="cls-2" transform="translate(36.5 10.1)">in</text><path class="cls-3" d="M.25,1.38H1.34V9.15H5v.95H.25Z"/><path class="cls-3" d="M7.38,2.08A.69.69,0,1,1,6,2.08a.69.69,0,0,1,.69-.72A.67.67,0,0,1,7.38,2.08Zm-1.23,8V3.84h1.1V10.1Z"/><path class="cls-3" d="M9.09,5.53c0-.65,0-1.18-.05-1.69h1l.06,1h0a2.26,2.26,0,0,1,2-1.18c.84,0,2.15.52,2.15,2.67V10.1H13.16V6.49c0-1-.36-1.85-1.41-1.85A1.58,1.58,0,0,0,10.27,5.8a1.69,1.69,0,0,0-.08.53V10.1H9.09Z"/><path class="cls-3" d="M17.16,6.71h0c.15-.22.37-.49.54-.71l1.79-2.16h1.33L18.49,6.41l2.68,3.69H19.82l-2.1-3-.56.64V10.1h-1.1V.91h1.1Z"/><path class="cls-3" d="M22.57,7.17a2,2,0,0,0,2.09,2.18A3.81,3.81,0,0,0,26.35,9l.18.82a4.75,4.75,0,0,1-2,.39,2.87,2.87,0,0,1-3-3.16c0-1.89,1.08-3.38,2.85-3.38,2,0,2.52,1.8,2.52,2.95a4.61,4.61,0,0,1,0,.53Zm3.25-.81c0-.73-.29-1.85-1.54-1.85a1.86,1.86,0,0,0-1.69,1.85Z"/><path class="cls-3" d="M33.51.91V8.48c0,.56,0,1.19.05,1.62h-1l0-1.09h0a2.24,2.24,0,0,1-2.07,1.23C29,10.24,27.81,9,27.81,7.06c0-2.09,1.25-3.37,2.73-3.37a2,2,0,0,1,1.84,1h0V.91ZM32.4,6.38a1.88,1.88,0,0,0,0-.47,1.62,1.62,0,0,0-1.59-1.32c-1.15,0-1.83,1-1.83,2.42s.61,2.31,1.8,2.31A1.67,1.67,0,0,0,32.35,8a1.89,1.89,0,0,0,0-.49Z"/></g></g></svg>